<svg width="104" height="15" viewBox="0 0 104 15" fill="none" xmlns="http://www.w3.org/2000/svg">
<path d="M2.03409 1.36364V13H0.278409V1.36364H2.03409ZM8.19795 13H4.43091V1.36364H8.31727C9.45742 1.36364 10.4366 1.59659 11.2548 2.0625C12.073 2.52462 12.6998 3.18939 13.1355 4.05682C13.5748 4.92045 13.7945 5.95644 13.7945 7.16477C13.7945 8.37689 13.573 9.41856 13.1298 10.2898C12.6904 11.161 12.054 11.8314 11.2207 12.3011C10.3873 12.767 9.37977 13 8.19795 13ZM6.18659 11.4659H8.10136C8.98773 11.4659 9.72447 11.2992 10.3116 10.9659C10.8987 10.6288 11.3381 10.142 11.6298 9.50568C11.9214 8.86553 12.0673 8.08523 12.0673 7.16477C12.0673 6.25189 11.9214 5.47727 11.6298 4.84091C11.3419 4.20455 10.912 3.72159 10.34 3.39205C9.76803 3.0625 9.0578 2.89773 8.20932 2.89773H6.18659V11.4659ZM25.9257 7.18182C25.9257 8.42424 25.6985 9.49242 25.2439 10.3864C24.7894 11.2765 24.1663 11.9621 23.3746 12.4432C22.5867 12.9205 21.6909 13.1591 20.6871 13.1591C19.6795 13.1591 18.7799 12.9205 17.9882 12.4432C17.2004 11.9621 16.5791 11.2746 16.1246 10.3807C15.6701 9.48674 15.4428 8.42045 15.4428 7.18182C15.4428 5.93939 15.6701 4.87311 16.1246 3.98295C16.5791 3.08901 17.2004 2.40341 17.9882 1.92614C18.7799 1.44508 19.6795 1.20455 20.6871 1.20455C21.6909 1.20455 22.5867 1.44508 23.3746 1.92614C24.1663 2.40341 24.7894 3.08901 25.2439 3.98295C25.6985 4.87311 25.9257 5.93939 25.9257 7.18182ZM24.1871 7.18182C24.1871 6.23485 24.0337 5.4375 23.7269 4.78977C23.4238 4.13826 23.0072 3.64583 22.4769 3.3125C21.9504 2.97538 21.3538 2.80682 20.6871 2.80682C20.0166 2.80682 19.4182 2.97538 18.8916 3.3125C18.3651 3.64583 17.9485 4.13826 17.6416 4.78977C17.3386 5.4375 17.1871 6.23485 17.1871 7.18182C17.1871 8.12879 17.3386 8.92803 17.6416 9.57955C17.9485 10.2273 18.3651 10.7197 18.8916 11.0568C19.4182 11.3902 20.0166 11.5568 20.6871 11.5568C21.3538 11.5568 21.9504 11.3902 22.4769 11.0568C23.0072 10.7197 23.4238 10.2273 23.7269 9.57955C24.0337 8.92803 24.1871 8.12879 24.1871 7.18182ZM27.9547 1.36364H30.0853L33.7899 10.4091H33.9263L37.6308 1.36364H39.7615V13H38.091V4.57955H37.9831L34.5513 12.983H33.1649L29.7331 4.57386H29.6251V13H27.9547V1.36364ZM52.262 7.18182C52.262 8.42424 52.0347 9.49242 51.5802 10.3864C51.1256 11.2765 50.5025 11.9621 49.7109 12.4432C48.923 12.9205 48.0271 13.1591 47.0234 13.1591C46.0158 13.1591 45.1162 12.9205 44.3245 12.4432C43.5366 11.9621 42.9154 11.2746 42.4609 10.3807C42.0063 9.48674 41.779 8.42045 41.779 7.18182C41.779 5.93939 42.0063 4.87311 42.4609 3.98295C42.9154 3.08901 43.5366 2.40341 44.3245 1.92614C45.1162 1.44508 46.0158 1.20455 47.0234 1.20455C48.0271 1.20455 48.923 1.44508 49.7109 1.92614C50.5025 2.40341 51.1256 3.08901 51.5802 3.98295C52.0347 4.87311 52.262 5.93939 52.262 7.18182ZM50.5234 7.18182C50.5234 6.23485 50.3699 5.4375 50.0631 4.78977C49.7601 4.13826 49.3434 3.64583 48.8131 3.3125C48.2866 2.97538 47.69 2.80682 47.0234 2.80682C46.3529 2.80682 45.7544 2.97538 45.2279 3.3125C44.7014 3.64583 44.2847 4.13826 43.9779 4.78977C43.6749 5.4375 43.5234 6.23485 43.5234 7.18182C43.5234 8.12879 43.6749 8.92803 43.9779 9.57955C44.2847 10.2273 44.7014 10.7197 45.2279 11.0568C45.7544 11.3902 46.3529 11.5568 47.0234 11.5568C47.69 11.5568 48.2866 11.3902 48.8131 11.0568C49.3434 10.7197 49.7601 10.2273 50.0631 9.57955C50.3699 8.92803 50.5234 8.12879 50.5234 7.18182ZM58.058 13H54.2909V1.36364H58.1773C59.3174 1.36364 60.2966 1.59659 61.1148 2.0625C61.933 2.52462 62.5598 3.18939 62.9955 4.05682C63.4348 4.92045 63.6545 5.95644 63.6545 7.16477C63.6545 8.37689 63.433 9.41856 62.9898 10.2898C62.5504 11.161 61.914 11.8314 61.0807 12.3011C60.2473 12.767 59.2398 13 58.058 13ZM56.0466 11.4659H57.9614C58.8477 11.4659 59.5845 11.2992 60.1716 10.9659C60.7587 10.6288 61.1981 10.142 61.4898 9.50568C61.7814 8.86553 61.9273 8.08523 61.9273 7.16477C61.9273 6.25189 61.7814 5.47727 61.4898 4.84091C61.2019 4.20455 60.772 3.72159 60.2 3.39205C59.628 3.0625 58.9178 2.89773 58.0693 2.89773H56.0466V11.4659ZM72.0244 4.42045C71.9638 3.88258 71.7138 3.46591 71.2744 3.17045C70.835 2.87121 70.282 2.72159 69.6153 2.72159C69.138 2.72159 68.7251 2.79735 68.3766 2.94886C68.0282 3.09659 67.7573 3.30114 67.5641 3.5625C67.3748 3.82008 67.2801 4.11364 67.2801 4.44318C67.2801 4.7197 67.3445 4.95833 67.4732 5.15909C67.6058 5.35985 67.7782 5.52841 67.9903 5.66477C68.2062 5.79735 68.4373 5.90909 68.6835 6C68.9297 6.08712 69.1664 6.15909 69.3937 6.21591L70.5301 6.51136C70.9013 6.60227 71.282 6.72538 71.6721 6.88068C72.0623 7.03598 72.424 7.24053 72.7573 7.49432C73.0907 7.74811 73.3596 8.0625 73.5641 8.4375C73.7725 8.8125 73.8766 9.26136 73.8766 9.78409C73.8766 10.4432 73.7062 11.0284 73.3653 11.5398C73.0282 12.0511 72.5376 12.4545 71.8937 12.75C71.2535 13.0455 70.4789 13.1932 69.5698 13.1932C68.6986 13.1932 67.9448 13.0549 67.3085 12.7784C66.6721 12.5019 66.174 12.1098 65.8141 11.6023C65.4543 11.0909 65.2554 10.4848 65.2176 9.78409H66.9789C67.013 10.2045 67.1494 10.5549 67.388 10.8352C67.6304 11.1117 67.9391 11.3182 68.3141 11.4545C68.6929 11.5871 69.1077 11.6534 69.5585 11.6534C70.0547 11.6534 70.496 11.5758 70.8823 11.4205C71.2725 11.2614 71.5793 11.0417 71.8028 10.7614C72.0263 10.4773 72.138 10.1458 72.138 9.76705C72.138 9.42235 72.0395 9.14015 71.8426 8.92045C71.6494 8.70076 71.3861 8.51894 71.0528 8.375C70.7232 8.23106 70.3501 8.10417 69.9335 7.99432L68.5585 7.61932C67.6266 7.36553 66.888 6.99242 66.3426 6.5C65.8009 6.00758 65.5301 5.35606 65.5301 4.54545C65.5301 3.875 65.7119 3.28977 66.0755 2.78977C66.4391 2.28977 66.9316 1.90151 67.5528 1.625C68.174 1.3447 68.8748 1.20455 69.6551 1.20455C70.4429 1.20455 71.138 1.3428 71.7403 1.61932C72.3463 1.89583 72.8236 2.27652 73.1721 2.76136C73.5206 3.24242 73.7024 3.79545 73.7176 4.42045H72.0244ZM80.1674 7.96591V6.69318L87.7129 3.03409V4.76705L82.1447 7.30682L82.1959 7.20455V7.44886L82.1447 7.35227L87.7129 9.88636V11.625L80.1674 7.96591ZM94.6807 0.818181L90.9307 14.75H89.4137L93.1637 0.818181H94.6807ZM103.924 9.05682L96.3787 12.7159V10.9773L101.947 8.44318L101.89 8.53977V8.29545L101.947 8.39773L96.3787 5.85795V4.125L103.924 7.78409V9.05682Z" fill="#1D1D1D"/>
</svg>
