<svg aria-hidden="true" style="position: absolute; width: 0; height: 0; overflow: hidden;" version="1.1" xmlns="http://www.w3.org/2000/svg" xmlns:xlink="http://www.w3.org/1999/xlink">
<defs>
<symbol id="user-avatarSubtract" viewBox="0 0 32 32">
<path d="M11.056 13.327c1.371 1.371 3.018 2.056 4.944 2.056s3.573-0.685 4.944-2.056c1.371-1.371 2.056-3.019 2.056-4.944s-0.685-3.573-2.056-4.944c-1.371-1.371-3.019-2.057-4.944-2.057s-3.573 0.685-4.944 2.057c-1.371 1.371-2.056 3.018-2.056 4.944s0.685 3.573 2.056 4.944zM1 26.167v4.446h3v-4.614h0.007c0.028-0.341 0.143-0.661 0.345-0.958 0.235-0.345 0.553-0.626 0.955-0.844 1.723-0.849 3.48-1.492 5.271-1.929s3.598-0.656 5.421-0.656 3.63 0.219 5.421 0.656c1.791 0.437 3.548 1.080 5.271 1.929 0.402 0.218 0.721 0.499 0.956 0.844 0.202 0.297 0.317 0.616 0.345 0.958h0.007v4.614h3v-4.446c0-0.979-0.266-1.886-0.798-2.721s-1.243-1.476-2.133-1.925c-1.977-0.969-3.971-1.696-5.982-2.181s-4.041-0.727-6.087-0.727-4.075 0.242-6.087 0.727c-2.012 0.485-4.006 1.212-5.982 2.181-0.89 0.449-1.601 1.090-2.133 1.925s-0.798 1.742-0.798 2.721zM18.825 11.208c-0.783 0.783-1.725 1.175-2.825 1.175s-2.042-0.392-2.825-1.175c-0.783-0.783-1.175-1.725-1.175-2.825s0.392-2.042 1.175-2.825c0.783-0.783 1.725-1.175 2.825-1.175s2.042 0.392 2.825 1.175c0.783 0.783 1.175 1.725 1.175 2.825s-0.392 2.042-1.175 2.825z"></path>
</symbol>
</defs>
</svg>
